<?xml version="1.0" encoding="UTF-8" standalone="no"?>
<svg xmlns:dc="http://purl.org/dc/elements/1.1/" xmlns:cc="http://creativecommons.org/ns#" xmlns:rdf="http://www.w3.org/1999/02/22-rdf-syntax-ns#" xmlns:svg="http://www.w3.org/2000/svg" xmlns="http://www.w3.org/2000/svg" xmlns:sodipodi="http://sodipodi.sourceforge.net/DTD/sodipodi-0.dtd" xmlns:inkscape="http://www.inkscape.org/namespaces/inkscape" id="svg44055" viewBox="0 0 1006.068 288.6" width="2498.4304" height="716.24817" version="1.1">
  <metadata id="metadata11">
    
  </metadata>
  <defs id="defs9"/>
  
  <style id="style2">.st0{fill:#b80103}</style>
  <path id="path43150" class="st0" d="m 10.883799,96.2 v 37.1 c 0,0 0,2.1 -5.5000001,5.5 0,0 -5.70000002,3.4 -5.70000002,7.2 0,0 0,3.2 5.70000002,6.1 0,0 2.5,1.7 5.5000001,2.5 l 5.1,2.3 c 0,0 5.1,3.2 5.1,6.9 0,0 0,3.4 -4.8,6.3 0,0 -5.1,2.9 -5.3,4.6 0,0 -0.4,2.5 -0.2,55.6 l 0.2,52.7 h 57.7 c 0,0 24.6,0 37.700001,-16.8 0,0 12,-15.4 12,-41.5 l -0.2,-48.2 c 0,0 0,-3.4 4,-6.9 0,0 3.8,-3.4 3.4,-4.8 0,0 -0.2,-1.3 -5.3,-3.4 0,0 -5.3,-2.3 -5.9,-3.4 0,0 -3.8,-9.3 -12.8,-13.9 0,0 -7.200001,-3.8 -22.300001,-6.7 v -0.8 c 0,0 19.4,-4.4 27.600001,-11.6 0,0 10.1,-8.4 10.3,-25.5 V 96.3 H 75.883799 v 3.6 c 0,0 0,11.8 -3.4,16.4 0,0 -3.4,4.2 -11.4,4.2 h -9.3 V 96.2 Z m 41,57.5 h 8 c 0,0 7.6,0 13.9,2.7 0,0 7.4,3.2 8.8,8.8 0,0 0.4,2.3 -0.8,4.4 l -2.7,3.6 c 0,0 -1.9,2.3 -1.9,4 V 228 c 0,0 0,12.4 -4.2,17.5 0,0 -3.8,4.4 -13.1,4.4 h -8 z M 116.9838,55.4 c 0,0 0,-23.2 -11.6,-36 0,0 -12.600001,-13.9 -36.400001,-13.9 h -58.1 v 50.1 h 41.1 V 37.1 h 9.3 c 0,0 7.8,0 11,4 0,0 3.4,4 3.8,14.5 H 117.1838 v -0.2 m 56.5,-49.9 h -41.1 v 132.3 c 0,0 0,2.7 -6.5,6.1 0,0 -6.3,3.4 -6.3,6.5 0,0 0,2.5 2.9,4 l 9.9,2.5 c 0,0 5.9,1.3 8.4,4 0,0 1.7,1.7 1.5,3.2 0,0 -0.2,3.4 -5.1,6.7 0,0 -4.8,3.2 -4.8,5.7 0,0 -0.4,2.1 -0.2,54.5 l 0.2,52 h 93.3 v -36.2 h -52.2 v -80.2 c 0,0 0,-2.9 -7.2,-6.3 0,0 -6.9,-3.2 -6.9,-6.3 0,0 0,-3.2 6.9,-7.6 l 7.2,-6.1 V 5.5 m 89.5,0 c 0,0 -15,127.2 -15,132.7 0,0 0,4 -10.1,8 0,0 -10.1,4 -10.3,7.2 0,0 0,2.3 9.1,4.6 l 8.8,1.9 3.8,1.1 c 0,0 3.6,1.5 3.4,2.9 l -4.2,4.4 c 0,0 -4.2,2.9 -4.4,4.6 l -12.4,110.1 h 37.3 l 8.8,-75.2 h 29.1 l 7.8,75.2 h 41.5 l -6.7,-57.3 -6.7,-62.3 c 0,0 0,-4.4 -11.6,-8 0,0 -11.6,-3.4 -11.6,-5.9 0,0 0,-1.9 10.3,-4.4 0,0 10.1,-2.5 10.1,-6.1 l -15.3,-133.5 z m 28.8,50.7 h 2.5 l 6.1,82.3 c 0,0 0,2.5 -5.7,6.1 0,0 -5.7,3.6 -5.7,6.9 0,0 0,2.9 6.5,6.3 0,0 6.7,3.4 6.7,5.9 0,0 0,4.2 0.6,7.8 h -21.3 l 1.3,-12.6 -0.4,-3.8 -0.6,-3.6 1.3,-4 1.1,-4.8 z m 162.4,-46.3 c 0,0 -14.1,-9.9 -36.4,-9.9 0,0 -22.3,0 -36.2,9.9 0,0 -17.5,12 -17.5,36.9 v 91.6 c 0,0 0,2.5 -11,6.3 0,0 -11.2,4 -11.4,5.7 0,0 0,2.5 11.2,5.1 l 11.2,2.3 6.9,1.5 c 0,0 6.9,2.1 6.5,5.5 0,0 0,3.4 -6.5,6.7 0,0 -6.9,3.4 -6.9,6.1 v 64.2 c 0,0 0,24.9 17.5,37.1 0,0 13.9,9.7 36.2,9.7 0,0 22.3,0 36.4,-9.7 0,0 17.3,-12.2 17.3,-37.1 v -63.6 h -41.1 v 60 c 0,0 0,10.1 -3.2,13.9 0,0 -2.5,3.4 -9.3,3.4 0,0 -6.7,0 -9.5,-3.4 0,0 -3.2,-3.8 -3.2,-13.9 v -76.7 c 0,0 0,-1.3 -6.9,-4.4 0,0 -6.7,-3.4 -6.5,-6.9 0,0 0.2,-3.6 6.9,-7.2 0,0 6.5,-3.6 6.5,-4.4 V 50.3 c 0,0 0,-10.1 3.2,-13.9 0,0 2.7,-3.4 9.5,-3.4 0,0 6.7,0 9.3,3.4 0,0 3.2,4 3.2,13.9 V 107 h 41.1 V 46.8 c 0,0 0,-24.9 -17.3,-36.9 m 113.9,131.8 2.9,-5.5 v -1.7 l -0.6,-1.7 -0.4,-0.6 31.4,-126.7 h -40 l -31.4,125.1 h -1.1 V 5.5 h -41.3 v 128.9 c 0,0 0,1.9 -8.4,5.1 0,0 -8.6,3.4 -8.6,6.5 0,0 0,2.7 7.2,5.3 l 9.9,3.6 3.8,4 0.6,4.8 -2.3,6.3 -2.1,5.1 v 108 h 41.3 V 159 c 0,0 0,-2.7 -2.9,-5.1 l -7.2,-3.8 -5.5,-3.2 c 0,0 -0.4,-1.1 3.8,-2.9 l 5.3,-2.1 2.1,-0.2 h 1.5 l -2.5,2.5 -0.4,1.7 0.4,1.1 5.1,4 4.2,4.4 14.1,65.1 13.1,62.5 h 42.3 l -26.1,-121.9 -1.1,-2.1 -5.5,-4 c 0,0 -3.8,-2.9 -4,-5.9 -0.1,0 -0.5,-3.2 2.4,-7.4 m 140.1,105.1 h -52.2 v -83 l -2.9,-4.8 c 0,0 -3.2,-3.8 -3.2,-6.9 0,0 0,-3.2 3.2,-7.2 l 2.9,-4 V 5.5 h -41.3 v 134.6 c 0,0 0,1.7 -6.9,4.6 0,0 -6.9,2.7 -6.9,6.5 0,0 0.2,3.4 6.9,5.7 l 6.9,1.5 4.8,1.5 c 0,0 4.8,2.5 4.8,6.7 0,0 0,4.6 -9.1,9.5 l -0.6,0.8 V 283 h 93.5 v -36.2 m 12.1,-241.3 v 135.2 c 0,0 0,1.1 -7.8,4.8 0,0 -7.8,4 -7.6,6.5 0,0 0.2,3.2 5.7,4.4 l 9.7,1.5 9.9,0.8 c 0,0 5.9,0.8 5.9,3.8 0,0 0,1.9 -7.8,5.3 0,0 -8,3.2 -8,6.7 V 283 h 41.1 V 163 c 0,0 0,-4.4 -8.6,-7.4 0,0 -8.6,-2.7 -8.6,-5.3 0,0 0,-2.9 8.6,-6.7 0,0 8.6,-3.6 8.6,-6.1 V 5.5 h -41.1 m 146.8,4.4 c 0,0 -13.9,-9.9 -36.4,-9.9 0,0 -22.1,0 -36.2,9.9 0,0 -17.3,12 -17.3,36.9 v 39.8 c 0,0 0,12.6 7.2,26.7 0,0 5.5,11 16.8,25.5 0,0 1.1,1.3 -2.3,4.4 0,0 -4,3.8 -3.6,6.5 0,0 1.1,5.1 20.8,7.6 0,0 10.5,1.3 16,3.8 0,0 3.6,1.7 6.1,4.6 0,0 1.7,2.1 -2.7,6.5 0,0 -4.2,4.6 -2.9,6.5 0,0 11,16.8 11,30.1 v 29.3 c 0,0 0,10.1 -3.2,13.9 0,0 -2.7,3.4 -9.3,3.4 0,0 -6.7,0 -9.7,-3.4 0,0 -3.2,-3.8 -3.2,-13.9 v -60.4 h -41.1 v 64 c 0,0 0,24.9 17.3,37.1 0,0 13.9,9.7 36.2,9.7 0,0 22.5,0 36.4,-9.7 0,0 17.5,-12.2 17.5,-37.1 v -49.1 c 0,0 0,-6.1 -3.8,-14.1 l -10.1,-17.1 c 0,0 -2.3,-3.2 -13.5,-5.5 0,0 -10.5,-2.1 -11.2,-5.1 0,0 -0.8,-2.9 4.2,-6.9 0,0 4.8,-3.6 3.2,-5.7 l -24.1,-31.2 c 0,0 -11,-15.4 -11,-22.3 V 50.3 c 0,0 0,-10.1 3.2,-13.9 0,0 2.7,-3.4 9.7,-3.4 0,0 6.5,0 9.3,3.4 0,0 3.2,4 3.2,13.9 v 55 h 41 V 46.8 c 0,0 0,-24.9 -17.5,-36.9 m 139.2,-4.4 h -112.9 v 36.2 h 36 l 0.2,97.9 c 0,0 0,2.1 -8,5.9 0,0 -7.6,4 -7.6,6.3 0,0 -0.2,2.3 5.1,4 l 10.3,2.7 10.3,3.8 c 0,0 4.6,2.7 4.6,6.3 0,0 0,3.2 -7.6,5.7 0,0 -7.4,2.5 -7.4,3.8 V 283 h 41.1 V 163.4 c 0,0 0,-2.9 -9.3,-6.1 0,0 -9.3,-2.9 -9.3,-5.1 0,0 0,-2.1 9.3,-5.7 0,0 9.3,-3.6 9.3,-6.9 V 41.7 h 35.8 V 5.5" style="fill:#e72c10;fill-opacity:1"/>
  <path id="path43154" class="st0" d="m 71.883799,60.9 h 10.1 v 30.7 h -10.1 V 78.8 h -15.3 v 12.8 h -10.1 V 60.9 h 10.1 v 11 h 15.4 v -11 m -50,6.9 h -11.1 v -6.9 h 32.4 v 6.9 h -11.2 v 23.8 h -10.1 V 67.8 M 116.9838,67.6 H 96.783799 v 5.5 H 115.7838 v 6.3 H 96.783799 v 5.5 H 116.9838 v 6.7 H 86.483799 V 60.9 H 116.9838 v 6.7" style="fill:#e72c10;fill-opacity:1"/>
</svg>
