<?xml version="1.0" encoding="UTF-8" standalone="no"?>
<!-- Created with Inkscape (http://www.inkscape.org/) -->
<svg xmlns="http://www.w3.org/2000/svg" xmlns:svg="http://www.w3.org/2000/svg" version="1.1" id="svg856" width="2991" height="1278" viewBox="0 0 2991 1278">
  <defs id="defs860"/>
  <g id="g862">
    <path style="fill:#ffffff" d="m 919.81785,1274.4111 c -18.48295,-3.243 -32.1583,-9.938 -42.33714,-20.726 -12.52192,-13.272 -18.55665,-28.671 -23.64314,-60.331 -1.63142,-10.155 -2.40238,-337.30304 -0.83538,-354.48204 4.54218,-49.797 22.36798,-79.2 58.19251,-95.988 37.48545,-17.567 112.7649,-20.113 158.3053,-5.355 26.4413,8.569 46.694,24.955 57.6619,46.653 11.5683,22.886 15.7906,52.084 15.8236,109.422 l 0.014,25.25 h -59.9626 -59.9625 l -0.2875,-46.75 -0.2874,-46.75 -2.5,-4.994 c -1.5673,-3.13 -4.0871,-6.093 -6.7539,-7.942 -3.7399,-2.592 -5.3108,-2.999 -13,-3.365 -14.06034,-0.668 -20.77574,2.27 -25.53995,11.176 l -2.20615,4.125 -0.26148,168.454 c -0.28586,184.15704 -0.5589,174.94604 5.39587,182.02304 4.69127,5.575 9.70217,7.457 19.86561,7.461 12.1558,0 18.0884,-3.096 22.8473,-11.938 2.1102,-3.921 2.1583,-4.993 2.4379,-54.25 l 0.2851,-50.25 h -12.5351 -12.5352 v -46 -46.00004 h 72.5 72.5 v 146.01004 146.011 l -43.1506,-0.261 -43.1507,-0.26 -5.7768,-21 c -3.1772,-11.55 -5.8094,-21.141 -5.8493,-21.312 -0.04,-0.171 -2.739,3.227 -5.9979,7.552 -16.1287,21.404 -36.9802,35.477 -62.82378,42.398 -10.02098,2.684 -44.30792,3.546 -56.43307,1.419 z M 1309,1274.1481 c -10.3618,-0.631 -28.5004,-3.39 -38.0985,-5.794 -45.3365,-11.354 -69.8216,-36.752 -78.8669,-81.806 -3.6099,-17.981 -4.1251,-26.274 -4.7176,-75.944 l -0.5816,-48.75 h 60.1017 60.1017 l 0.2806,58.778 0.2806,58.778 2.5548,4.963 c 1.8141,3.524 3.9655,5.835 7.4215,7.972 4.5747,2.828 5.4766,3.009 15.0237,3.009 9.5471,0 10.449,-0.181 15.0237,-3.009 3.4551,-2.136 5.6078,-4.448 7.4215,-7.971 l 2.5548,-4.961 0.2952,-37.829 c 0.3175,-40.695 -0.023,-44.365 -5.023,-54.177 -2.9982,-5.884 -9.8193,-13.942 -16.706,-19.737 -3.0614,-2.575 -25.3662,-20.407 -49.5662,-39.627 -51.0342,-40.53004 -59.5394,-47.85104 -69.7922,-60.07104 -14.9937,-17.87 -22.221,-33.769 -25.7374,-56.618 -1.7775,-11.55 -2.3905,-51.653 -1.0343,-67.657 1.4905,-17.588 3.2348,-27.347 7.2043,-40.309 14.3756,-46.942 48.9978,-69.602 114.0173,-74.623 17.3102,-1.337 43.4474,-0.665 59.9787,1.54 58.3216,7.782 90.0877,35.155 100.4405,86.549 3.5671,17.708 4.416,31.393 4.4197,71.25 v 36.75 h -59 -59 l -0.01,-46.75 c 0,-27.817 -0.4327,-49.383 -1.0575,-53.25 -2.2887,-14.17 -9.3955,-19.981 -24.4349,-19.981 -6.3462,0 -9.0657,0.496 -13.1551,2.4 -10.8187,5.038 -12.8679,13.941 -12.0798,52.486 0.5353,26.181 1.3179,31.391 6.1467,40.921 5.1341,10.131 10.2061,14.714 62.7358,56.684 65.9871,52.72304 75.4767,62.01404 87.3477,85.52604 8.655,17.141 11.9172,32.425 13.6366,63.886 1.3024,23.83 0.1602,54.33 -2.6428,70.578 -8.3671,48.497 -29.9758,74.763 -72.7067,88.376 -22.9061,7.297 -58.3805,10.516 -92.7824,8.418 z m 647,0.109 c -15.5695,-1.374 -25.8886,-2.825 -35.9602,-5.058 -48.7186,-10.799 -74.7527,-36.514 -84.4068,-83.374 -4.1274,-20.034 -4.133,-20.287 -4.133,-185.471 0,-158.75604 0,-159.02104 2.1873,-172.50004 2.9079,-17.949 6.2883,-29.369 12.3495,-41.724 9.8955,-20.169 22.8126,-32.657 44.285,-42.812 23.2633,-11.002 58.8285,-16.498 97.7962,-15.112 59.7273,2.124 95.0584,16.582 115.4806,47.257 8.4975,12.764 13.4932,26.251 17.5766,47.451 2.203,11.438 2.2033,11.462 2.5817,169.94 0.2705,113.29204 0.054,162.06004 -0.7596,170.98204 -4.7339,51.922 -24.0146,81.945 -62.9288,97.99 -19.9647,8.232 -42.6007,11.94 -76.0685,12.461 -12.925,0.202 -25.525,0.188 -28,-0.03 z m 33.4139,-84.029 c 2.6236,-0.894 6.2922,-3.147 8.1524,-5.007 6.8764,-6.877 6.4845,4.979 6.1949,-187.41204 l -0.2612,-173.455 -2.2408,-4.192 c -2.493,-4.664 -7.0177,-8.449 -12.1584,-10.17 -4.2564,-1.425 -17.3628,-1.471 -22.3781,-0.08 -5.0551,1.404 -10.5906,6.434 -13.1395,11.94 -2.0819,4.497 -2.0834,4.609 -2.35,175.41 -0.2365,151.47704 -0.091,171.59604 1.2788,176.94304 2.3465,9.159 6.935,14.113 15.4815,16.712 4.5325,1.379 16.477,0.994 21.4204,-0.691 z M 0,1001.3541 V 736.85406 h 60 60 v 110.441 c 0,78.449 0.31491,110.635 1.08713,111.113 0.59793,0.369 1.52404,0.235 2.05805,-0.299 0.534,-0.534 7.69293,-28.373 15.90873,-61.863 8.2158,-33.491 20.38357,-83.055 27.03949,-110.142 l 12.10168,-49.25 h 59.96985 c 56.64709,0 59.94081,0.1 59.44584,1.75 C 293.1804,753.39906 228,988.09206 228,989.24806 c 0,1.313 79.97917,270.78204 81.69959,275.26504 0.42673,1.112 -10.41,1.341 -63.5926,1.341 -35.25885,0 -64.10699,-0.204 -64.10699,-0.453 0,-1.128 -58.16236,-245.043 -58.5155,-245.396 -0.21903,-0.219 -1.09265,-0.132 -1.94137,0.194 -1.37922,0.529 -1.54313,13.607 -1.54313,123.123 v 122.532 H 60 0 Z m 345,0 V 736.85406 h 60 60 v 264.50004 264.5 h -60 -60 z m 168,0 V 736.85406 h 61.80098 61.80099 l 27.73957,121.771 c 24.66358,108.269 32.13146,142.97904 38.18408,177.47904 1.45479,8.292 1.99323,9.75 3.6012,9.75 1.6802,0 1.83272,-0.585 1.37024,-5.25 C 705.60336,1021.5001 705,979.26206 705,865.79906 v -128.945 h 50 50 v 264.50004 264.5 h -57.46146 -57.46145 l -1.08468,-4.029 c -3.96963,-14.742 -62.38234,-253.994 -64.54436,-264.36704 -1.47834,-7.092 -4.34946,-22.617 -6.38026,-34.498 -3.14756,-18.415 -3.96131,-21.655 -5.51517,-21.954 -1.7055,-0.328 -1.78015,0.347 -1.16007,10.498 2.15757,35.321 2.57325,64.71404 2.58947,183.10004 l 0.018,131.25 h -50.5 -50.5 z m 1083,44.008 V 824.85406 h -41 -41 v -44 -44 h 141 141 v 44 44 h -39.9978 -39.9977 l -0.2523,220.25004 -0.2522,220.25 -59.75,0.258 -59.75,0.257 z m 629,219.435 c 0,-0.58 -15.3,-119.454 -34,-264.164 -18.7,-144.70904 -34,-263.25904 -34,-263.44304 0,-0.185 27.225,-0.336 60.5,-0.336 h 60.5 v 2.244 c 0,1.234 6.3,84.454 14,184.934 7.7,100.47904 14,187.89404 14,194.25504 0,10.9 0.1153,11.567 2,11.567 1.8266,0 2.0013,-0.672 2.0155,-7.75 0.024,-12.014 1.0987,-26.087 16.0153,-209.71304 7.6831,-94.579 13.9692,-172.766 13.9692,-173.75 0,-1.7 3.4562,-1.787 70.5,-1.787 h 70.5 v 2.825 c 0,1.554 6.4884,82.891 14.4186,180.75 7.9302,97.85904 14.7347,185.01204 15.1211,193.67504 0.515,11.544 1.0358,15.75 1.9506,15.75 1.6607,0 2.4853,-5.509 2.4987,-16.693 0.01,-5.056 6.311,-91.273 14.011,-191.59404 7.7,-100.32 14,-182.921 14,-183.557 0,-0.862 15.3996,-1.156 60.6084,-1.156 h 60.6084 l -0.5034,2.25 c -0.2768,1.237 -15.7242,120.262 -34.3275,264.50004 l -33.8242,262.25 h -74.687 -74.687 l -0.6094,-4.75 c -0.3352,-2.613 -7.3355,-68.875 -15.5563,-147.25 -13.2974,-126.77404 -16.48,-161.83104 -17.2947,-190.50004 -0.2047,-7.203 -0.4306,-8.029 -2.2681,-8.292 -1.9863,-0.285 -2.0723,0.424 -3.2173,26.5 -0.9512,21.661 -4.151,55.038 -16.7092,174.29204 -8.543,81.125 -15.5327,148.062 -15.5327,148.75 0,0.989 -15.6667,1.25 -75,1.25 -51.9923,0 -75,-0.324 -75,-1.057 z m 474,-263.443 V 736.85406 h 61.4809 61.481 l 0.5325,2.25 c 0.2928,1.237 12.8969,56.59 28.009,123.007 24.4164,107.308 30.5051,135.623 37.2502,173.23304 1.4541,8.108 2.141,10.058 3.6453,10.348 1.7349,0.334 1.8115,-0.241 1.1965,-8.991 -2.0734,-29.495 -2.5612,-62.63604 -2.5774,-175.09704 l -0.018,-124.75 h 50 50 v 264.50004 264.5 h -57.5 c -31.625,0 -57.5,-0.209 -57.5,-0.463 0,-0.255 -13.9741,-57.292 -31.0536,-126.75 -29.4114,-119.609 -36.8168,-152.04704 -42.0149,-184.03704 -1.9637,-12.086 -2.4653,-13.75 -4.1434,-13.75 -1.7482,0 -1.8598,0.569 -1.3238,6.75 1.9884,22.926 2.5357,62.40004 2.5357,182.89604 v 135.354 h -50 -50 z M 1438.1123,689.27306 c -16.4802,-4.432 -28.5416,-16.389 -34.7206,-34.419 -2.8905,-8.435 -2.671,-27.226 0.4228,-36.191 7.4889,-21.7 25.5077,-34.809 47.8464,-34.809 23.6979,0 41.3679,12.365 49.1426,34.391 2.1336,6.044 2.5143,8.906 2.5424,19.109 0.028,10.367 -0.3124,12.966 -2.5048,19.102 -6.0747,17 -18.2848,28.674 -34.3761,32.865 -7.2985,1.901 -21.1936,1.877 -28.3527,-0.05 z m 21.917,-20.556 c 4.6821,-2.631 8.3493,-9.078 10.0092,-17.595 1.3769,-7.065 0.8004,-26.649 -0.9534,-32.386 -3.6957,-12.088 -14.2859,-17.882 -23.8082,-13.024 -7.7809,3.97 -11.2865,13.807 -11.2613,31.602 0.018,12.718 1.6542,20.931 5.2532,26.37 4.6331,7.001 13.4541,9.139 20.7605,5.033 z M 1519,637.35406 v -51.5 h 35.5 35.5 v 11 11 h -21 -21 v 9.5 9.5 h 18 18 v 10.5 10.5 h -18 -18 v 20.5 20.5 h -14.5 -14.5 z m -1519,-0.5 v -51 H 678.5 1357 v 51 51 H 678.5 0 Z m 1634,0 v -51 h 678 678 v 51 51 h -678 -678 z m 188.5,-90.6814 c -31.128,-1.9958 -57.3788,-8.9705 -76.8738,-20.4252 -9.9572,-5.8506 -24.803,-21.044 -30.5707,-31.2865 -9.6848,-17.1986 -15.1745,-39.8741 -17.0173,-70.2895 -1.3559,-22.3812 -1.3559,-279.2543 0,-301.6355 1.8428,-30.415401 7.3325,-53.090901 17.0173,-70.289501 6.0591,-10.76 21.5011,-26.2358 32.1723,-32.2429 C 1769.3975,7.5238586 1795.4906,1.5067586 1833,0.2245586 c 58.4233,-1.9972 101.1879,9.3468 125.4219,33.2703004 19.2143,18.968 28.5795,44.3557 31.5264,85.463501 1.3914,19.4097 1.3914,289.381 0,308.7907 -2.928,40.8444 -11.7799,65.2005 -30.6962,84.4616 -19.3621,19.7151 -48.1115,30.3936 -90.5419,33.6304 -12.2246,0.9326 -34.359,1.0914 -46.2102,0.3316 z m 31.6176,-83.335 c 6.2726,-1.7423 10.1943,-5.1077 13.3824,-11.4839 l 3,-6 v -172.5 c 0,-163.8724 -0.091,-172.7595 -1.8096,-177.687501 -2.1374,-6.1271 -7.7422,-11.6778 -13.3696,-13.2404 -4.8765,-1.3541 -17.7076,-1.3702 -22.5397,-0.028 -8.1022,2.2502 -13.1108,9.2619 -14.7591,20.661901 -1.3523,9.3523 -1.3308,330.3833 0.023,339.7487 1.5986,11.0608 6.8034,17.865 15.7193,20.5497 3.9059,1.176 16.0903,1.1639 20.3536,-0.02 z M 665,273.35376 V 8.8537586 h 77.45469 77.45468 l 0.56705,3.2500004 c 1.71293,9.8176 35.72552,245.251901 36.94754,255.750001 0.80028,6.875 2.17988,21.725 3.06579,33 1.98862,25.3094 2.23971,27 4.01025,27 1.77054,0 2.02163,-1.6906 4.01025,-27 0.88591,-11.275 2.25846,-26.0477 3.05012,-32.8283 1.20678,-10.3359 35.25322,-246.040801 36.96667,-255.921701 l 0.56359,-3.2500004 H 990.04531 1071 v 264.5000014 264.5 h -52.5632 -52.56329 l 0.52895,-166.25 c 0.29093,-91.4375 0.8079,-169.553 1.14883,-173.5899 0.56443,-6.6833 0.46051,-7.3091 -1.1619,-6.9966 -1.54946,0.2984 -2.46501,5.0365 -7.02205,36.3398 -2.88215,19.7982 -14.71886,97.2666 -26.30381,172.1522 C 921.47859,474.39476 912,536.15726 912,536.75926 c 0,0.7773 -13.76641,1.0945 -47.5,1.0945 -37.33339,0 -47.49998,-0.2676 -47.49989,-1.25 6e-5,-0.6875 -9.67774,-63.8 -21.50622,-140.25 -11.82849,-76.45 -23.66526,-153.8485 -26.30394,-171.9967 -4.16256,-28.629 -5.03346,-33.0421 -6.57936,-33.3398 -1.62257,-0.3125 -1.72614,0.3126 -1.15923,6.9966 0.34239,4.0369 0.85831,82.1524 1.14649,173.5899 l 0.52397,166.25 H 714.06091 665 Z m 425.5443,261.75 c 0.2719,-1.5125 15.999,-119.075 34.9491,-261.25 18.9502,-142.175 34.7119,-259.962501 35.026,-261.750001 l 0.5712,-3.2500004 h 84.3934 84.3935 l 0.6353,4.2500004 c 0.3494,2.3375 16.2669,121.250001 35.3721,264.250001 l 34.7367,260 -60.4697,0.2578 c -33.2583,0.1418 -60.5852,0.1418 -60.7264,0 -0.1412,-0.1418 -2.1216,-24.7828 -4.4008,-54.7578 -2.2792,-29.975 -4.3281,-55.0625 -4.553,-55.75 -0.314,-0.9597 -6.7812,-1.25 -27.8465,-1.25 h -27.4375 l -0.5802,4.75 c -0.3191,2.6125 -2.175,26.35 -4.1242,52.75 -1.9492,26.4 -3.7758,49.4625 -4.059,51.25 l -0.5149,3.25 h -57.9297 -57.9297 z m 171.9512,-211 c -1.5145,-12.5471 -17.3961,-213.3201 -17.4816,-221 -0.01,-0.6875 -1.0698,-1.25 -2.3602,-1.25 -2.3186,0 -2.3536,0.163 -2.9549,13.75 -0.3347,7.5625 -4.4539,58.2643 -9.1537,112.6706 -4.6998,54.4064 -8.5451,99.2939 -8.5451,99.75 0,0.4562 9.2405,0.8294 20.5344,0.8294 h 20.5345 z m 208.1712,213.0833 C 1470.3,536.82036 1470,494.40506 1470,442.93076 v -93.5896 l -45.5,-169.9051 C 1399.475,85.988359 1379,9.3786586 1379,9.1923586 c 0,-0.1863 27.9,-0.3386 62,-0.3386 50.3956,0 62,0.2447 62,1.3078004 0,0.7193 5.6003,39.0818 12.4451,85.25 12.5263,84.490601 13.9081,95.491801 15.1634,120.724101 0.6011,12.0818 1.4074,16.0355 2.9545,14.4884 0.2365,-0.2365 0.8899,-8.494 1.4522,-18.3501 0.5622,-9.8562 1.4759,-22.1736 2.0304,-27.3721 0.9547,-8.9499 24.4356,-169.027601 25.4935,-173.798101 l 0.499,-2.2500004 h 59.5483 c 58.7867,0 59.5404,0.025 58.9233,1.9695004 -0.3439,1.0833 -21.0742,78.3468 -46.0674,171.696601 L 1590,352.24696 v 92.8034 92.8034 h -59.3333 c -32.6334,0 -59.6334,-0.3 -60,-0.6667 z M 2022,273.36156 V 8.8537586 l 86.75,8e-4 c 50.3663,5e-4 91.3635,0.4237 97.75,1.0092 56.3852,5.1688004 89.1925,26.6117004 101.3661,66.2530004 5.2598,17.1275 5.6339,21.9247 5.6339,72.237001 0,45.097 -0.093,47.46 -2.3019,58.3634 -4.5959,22.6876 -11.2291,36.3652 -23.6102,48.6834 -14.0325,13.9614 -30.0323,20.249 -56.2081,22.089 -6.5815,0.4627 -9.3798,1.0391 -9.3798,1.9322 0,1.2596 1.204,1.4395 19.9307,2.9781 4.0868,0.3358 11.5432,1.6538 16.5698,2.9289 31.9674,8.1092 50.2723,30.6091 55.9365,68.7556 1.2252,8.2508 1.5722,19.9009 1.6056,53.8977 0.084,85.1726 1.9626,107.644 9.9364,118.8421 1.237,1.7373 2.021,4.427 2.021,6.9339 v 4.0957 h -59.9273 -59.9273 l -3.0186,-7.8275 c -7.8046,-20.2379 -9.0523,-36.7396 -9.0955,-120.2968 -0.033,-64.5962 -0.053,-64.8847 -4.9367,-71.7428 -1.0711,-1.5043 -4.343,-4.0613 -7.271,-5.6824 -5.2622,-2.9134 -5.5341,-2.9514 -23.569,-3.2942 l -18.2453,-0.3469 -0.2547,104.3453 -0.2546,104.3453 -59.75,0.2578 -59.75,0.2579 z m 156.7127,-44.8666 c 6.4919,-2.352 10.0951,-5.551 13.0662,-11.6007 l 2.7211,-5.5405 v -49 c 0,-53.4434 -0.015,-53.6002 -5.7612,-60.1447 -6.0912,-6.937601 -9.065,-7.762101 -29.4888,-8.176101 l -18.25,-0.37 v 68.741901 68.7418 l 16.75,-0.5627 c 11.235,-0.3775 18.1371,-1.0653 20.9627,-2.089 z" id="path946"/>
  </g>
</svg>
